<svg width="60" height="133" viewBox="0 0 60 133" fill="none" xmlns="http://www.w3.org/2000/svg">
<path d="M30 0C0 -6.67572e-06 0 44.9733 0 132.863H60C60 44.9733 60 6.67572e-06 30 0Z" fill="#4B8741"/>
<path d="M14.1109 28.7943C17.0906 28.1168 19.2237 27.4392 20.814 26.4401C22.4306 25.4245 23.4559 24.0973 24.2691 22.1967L23.3498 21.8033C22.5995 23.5568 21.6929 24.707 20.2821 25.5933C18.845 26.4961 16.8552 27.1448 13.8891 27.8191L14.1109 28.7943ZM35.7465 22.3028C37.5995 24.7326 39.1014 26.3921 40.6704 27.4243C42.2653 28.4735 43.8984 28.8555 45.9651 28.8066L45.9414 27.8068C44.0347 27.852 42.612 27.5046 41.22 26.5889C39.8023 25.6562 38.3862 24.115 36.5416 21.6964L35.7465 22.3028Z" fill="black"/>
<path d="M20 45C20.4715 38.2483 24.8038 52.1003 26 45C26.4715 38.2483 30.8038 52.1003 32 45C32.4715 38.2483 36.8038 52.1003 38 45C37.9931 43.5494 38.5 43 40 43.5" stroke="black"/>
<circle cx="21" cy="34" r="3" fill="black"/>
<circle cx="21" cy="34" r="1" fill="white"/>
<circle cx="39" cy="34" r="3" fill="black"/>
<circle cx="39" cy="34" r="1" fill="white"/>
</svg>
