<svg width="60" height="133" viewBox="0 0 60 133" fill="none" xmlns="http://www.w3.org/2000/svg">
<path d="M30 0C0 -6.67572e-06 0 44.9733 0 132.863H60C60 44.9733 60 6.67572e-06 30 0Z" fill="#F7DD55"/>
<path d="M13.4197 26.6735C16.7548 23.3312 18.8526 21.9631 24.9044 24.6484" stroke="black"/>
<path d="M45.4847 26.4052C42.1496 23.0629 40.0518 21.6949 34 24.3802" stroke="black"/>
<path d="M37.5 43C37.5 48.326 33.8452 52.5 29.5 52.5V53.5C34.5437 53.5 38.5 48.7197 38.5 43H37.5ZM29.5 52.5C25.1548 52.5 21.5 48.326 21.5 43H20.5C20.5 48.7197 24.4563 53.5 29.5 53.5V52.5ZM21 44H38V43H21V44Z" fill="black"/>
<path d="M36 32C34.3431 32 33 33.3431 33 35H39C39 33.3431 37.6569 32 36 32Z" fill="black"/>
<circle cx="36" cy="33" r="1" fill="white"/>
<path d="M23 32C21.3431 32 20 33.3431 20 35H26C26 33.3431 24.6569 32 23 32Z" fill="black"/>
<circle cx="23" cy="33" r="1" fill="white"/>
</svg>
