<svg width="60" height="133" viewBox="0 0 60 133" fill="none" xmlns="http://www.w3.org/2000/svg">
<path d="M30 0C0 -6.67572e-06 0 44.9733 0 132.863H60C60 44.9733 60 6.67572e-06 30 0Z" fill="#416987"/>
<path d="M15 34.5C18.8101 36.4128 20.8409 36.8022 24 34.5" stroke="black"/>
<path d="M35 34.5C38.8101 36.4128 40.8409 36.8022 44 34.5" stroke="black"/>
<path d="M22 47.88C25.3068 41.9054 34.6216 40.8622 38.6177 47.88" stroke="black"/>
<path d="M14.1109 29.7946C17.0906 29.1172 19.2237 28.4396 20.814 27.4405C22.4306 26.4249 23.4559 25.0976 24.2691 23.1971L23.3498 22.8037C22.5995 24.5572 21.6929 25.7074 20.2821 26.5937C18.845 27.4965 16.8552 28.1452 13.8891 28.8195L14.1109 29.7946ZM35.7465 23.3032C37.5995 25.733 39.1014 27.3924 40.6704 28.4247C42.2653 29.4739 43.8984 29.8559 45.9651 29.8069L45.9414 28.8072C44.0347 28.8524 42.612 28.505 41.22 27.5893C39.8023 26.6565 38.3862 25.1154 36.5416 22.6968L35.7465 23.3032Z" fill="black"/>
</svg>
